<?xml version="1.0" encoding="utf-8"?>
<!-- Generator: Adobe Illustrator 18.0.0, SVG Export Plug-In . SVG Version: 6.00 Build 0)  -->
<!DOCTYPE svg PUBLIC "-//W3C//DTD SVG 1.1//EN" "http://www.w3.org/Graphics/SVG/1.1/DTD/svg11.dtd">
<svg xmlns="http://www.w3.org/2000/svg" xmlns:xlink="http://www.w3.org/1999/xlink" version="1.1" id="Слой_2" x="0px" y="0px" viewBox="797 0 793 1200" enable-background="new 797 0 793 1200" xml:space="preserve">
<path fill="currentColor" stroke="" stroke-width="2" stroke-miterlimit="10" d="M1431,0c0,0-7.1,6-11.7,5.5  c-4.6-0.5-8.6,8.1-9.1,10.7c-0.5,2.5,3.6,12.7,3.6,12.7h17.2c0,0-4.1,4.1-5.6,9.1s5.6,4.6-2,19.8s-10.8,25.4-13.3,27.9  s-7.6,6.6-10.6,7.6s-6.1,4.1-10.7,9.1c-4.6,5.1-9.7,5.1-12.2,10.2s-4.6,10.3-4.6,16.4c0,6.1-0.5,26.4,0,32.5s1.5,10.7,4.1,12.2  c2.5,1.5,5.6,2.5,5.6,2.5s-8.1,2.5,5.6,7.1c13.7,4.6,19.3-0.5,22.9-4.6c3.6-4.1,8.1-5.6,12.2-6.1c4.1-0.5,11.2,4.1,11.2,4.1  s3,3.6,6.1,8.4c3,4.8,7.6,6.3,7.6,6.3s2,1.5-3,5.6c-5.1,4.1-6.6,8.6-11.2,9.1c-1.3,0.1-2.8,0.4-4.5,0.8c-6.3-4.9-17.1-9.5-33.6-4.9  c-13.2,3.6-18.3,21.8-18.3,21.8s-2.5,1-5.1,11.2c-2.5,10.2-0.5,16.8-7.6,22.9s-3.6,10.2-4.6,13.7c-1,3.6-4.1,3.6-6.1,5.6  s-5.6,8.6-7.1,16.8s-2,48.3-5.6,53.9c-1.8,2.8-5.8,5.8-9.6,8.1c-5.1-18.7-20.9-53.7-36.7-68.6c-16.3-15.2-61.5-44.7-95.5-58.9  s-40.6-8.6-59.4-7.6c-18.8,1-52.8-7.1-63.5-10.7c-10.7-3.6-11.7-14.2-13.2-26.4s-3.6-22.4,0.5-32.5c4.1-10.2,7.6-24.4,20.3-43.2  c12.7-18.8,74.7-72.1,91.5-96c16.8-23.9-11.2-7.1-35.1,4.6c-23.9,11.7-102.2,61.5-102.2,61.5s-8.6,0-41.2,0s-54.4,9.1-84.3,24.9  s-62,62.5-76.7,84.8c-14.7,22.3-36.6,54.4-30,48.8c6.6-5.6,29.5-16.3,41.2-16.3s23.4,6.6,41.7,14.7c18.3,8.1,22.4,0,22.4,0  s4.6,5.1,13.7,11.7c9.1,6.6,30.5,15.8,44.7,31.5c14.2,15.8,33,21.8,42.2,25.4c9.1,3.6,23.4,12.2,27.4,17.3c4.1,5.1,2,20.3,14.2,56.4  s14.2,49.8,35.6,90.9s38.1,76.7,44.2,95.5c6.1,18.8,17.8,58.9,30,98.6c12.2,39.7,42.3,89.7,65.5,125c7.9,11.9,32,47.3,32,47.3  s-0.5,6.6,3,22.4c3.6,15.8,16.3,48.3,27.4,67.1s37.1,39.6,37.1,39.6s-7.6-9.1-13.7-20.3c-6.1-11.2-6.6-28.5-6.6-28.5s3,6.1,5.6,15.8  c2.5,9.7,16.8,26.4,16.8,26.4s-4.1-7.1-10.2-21.3c-6.1-14.2-6.6-43.7-6.6-43.7s7.1,16.3,12.7,26.9c5.6,10.7,19.8,24.9,19.8,24.9  s-3-4.1-5.6-11.2c-2.6-7.1-5.1-11.7-8.6-19.3c-3.6-7.6-3-7.6-5.6-13.2c-2.5-5.6-3-17.8-3-17.8s52.3,113.3,68.6,156.5  c16.3,43.2,12.7,57.9,8.1,89.9c-4.6,32-22.9,51.3-22.9,51.3s10.2-2.5,16.8-9.1c1.2-1.2,2.6-2.6,3.9-4c-0.4,5.6-0.2,11.6-1.4,13.1  c-1.5,2-3,18.8-3,18.8H1590V0H1431z M1392.9,246.9c5.1-4.1,10.7-14.7,10.7-18.3s-8.1-8.1-8.1-8.1s-1.6-4.8,8.1-10.2  c6.9-3.8,14.1-3.2,19.9-1.5c-3.1,1.4-6.4,3.5-9.2,6.5c-6.1,6.6-12.5,26-16.8,32.5c-2.1,3.2-3.6,3.6-4.6,4.7  C1392.2,249.5,1392.2,247.4,1392.9,246.9z M1363.5,392c-1-1-2.2-2.4-3-3.8c0.8-2.6,1.6-5.3,2.3-8.3c2.5-11.2-2.5-20.8-2-27.4  s2-27.9,2-27.9s2.5,0,9.1,4.6c6.6,4.6,5.1,7.1,11.2,14.7s5.6,0.5,8.6,5.1s5.1,5.6,8.6,13.2c0.5,1,1,1.8,1.6,2.5  c-0.3,2.7-0.8,5.3-1.6,7.1c-2.5,6.1,4.1,6.1,5.6,8.6s-3,12.7-6.1,20.3c-3,7.6-12.7,37.1-20.3,45.7c-3.9,4.4-7.7,6.3-10.4,7.1  c-1.8-5.2-3.7-10-5.4-14c0.9-0.3,1.7-0.9,2.8-2.1c1.9-2,3.6-4.5-1-3.7c1.4-1.1,3.6-2,3.3-4c-1.4-0.1-3.1,0.2-4.5-0.1  c-1.5-0.2-1.8-1.3-3.4-1c2.1-1,5.8-0.3,6.9-2.5c-2.2-1.1-4.6-2.1-6.9-3.2c2.3-0.3,7.5-1.7,7.4-4.5c-1.6-0.2-3.3-1-4.8-1.6  c1.4-1,3.2-0.2,4.4-1.4c-2.5-0.7-5.6-1.6-7.5-2.6c2.3-0.1,10.1-2.1,9.5-5.1c-2.1-0.2-5.8-1.1-7-3c1.5-0.2,3,0,4.5-0.2  c-1.5-1-3.8-1.4-5.4-2.8c1.1-0.1,2.6,0,3.4-0.5c-0.9-0.7-1.8-1.1-2.9-1.2c1.6,0,3.2-0.6,4.7-0.9c-2.1-1.5-5-1.6-7.3-3.7  c4.1,0.1,8.1-0.5,12-0.6C1369.6,393.6,1366.1,394.6,1363.5,392z M1482.8,622.3c-1,6.6-2,19.8-4.6,20.3c-2.5,0.5-5.1-12.7-5.6-16.8  s-2-12.2-2-12.2s-8.1,0.5-14.2,3s-17.3,8.6-17.8,13.2c-0.5,4.6-2.5,10.7-3,16.8s1,44.7-4.1,72.7c-5.1,27.9-4.6,51.8-9.7,55.4  c-5.1,3.6,3.6,4.1,0,15.2c-3.6,11.2-10.7,24.9-1.5,23.4c9.1-1.5,6.1,10.2,4.1,15.2c-2,5.1,5.1,8.6,3.1,16.8c-2,8.1-1,13.7,0,24.4  s3.5,7.6-2,15.2s5.6,10.2,2,18.8s-7.6,26.4-9.7,32.5c-1.5,4.4-3.7,15.2-5,26.7c-2.4-6.9-5.1-14.5-8.2-22.7  c-9.7-25.9-49.3-129.1-50.3-138.2c-1-9.1-2.5-8.1,0-22.9c2-11.7-0.8-30.5-1.2-43.1c2.9,3.2,5.3,7.3,6.3,11.5  c-0.2-7.5-2.3-16.9-4.5-23.8c-0.3-0.9-0.7-1.7-1.1-2.4c0.1-4.3-0.1-8,0.8-13.6c2.5,3.2,4.1,7,5.7,10.9c-0.1-5.6-0.6-10.8-1.9-16.1  c-0.4-1.5-0.8-3.3-1.3-5.1c0.1-0.2,0.1-0.3,0.2-0.5c2.4-7.8,1.2-17.8-0.3-27c2.4,1.7,4.5,3.7,5.9,6.5c-1-1.9-3.2-8.1-3.1-10.3  c4.5,4,8.6,10,11.2,15.4c1-9.8-7.1-20.3-11-28.8c2.9,2.7,5.6,7,7.5,10.4c-0.7-3.2-1.8-6.5-3.1-9.4c-1.2-2.8-3.6-5.2-4.6-8  c2.1,1.4,3.8,3.5,5.9,4.8c-1-1.7-1-3.7-1.9-5.4c-0.9-1.7-2.7-3-2.3-5.1c0.4,0.2,1.5,0.2,1.9,0.4c-0.6-0.8-1.3-2-1.4-2.9  c3.7,1.7,9.5,2.8,11.5,6.9c0.6-5.2-0.8-8.1-3.3-12.5c1.5,0.6,2.7,1.8,3.9,2.8c-0.5-2.1-3.3-8.9-2.1-10.4c1.5,0.4,2.9,1.2,4.5,0.9  c-0.1-1.5-1-3.1-1.9-4.3c2.2,0.5,3.1,2.5,5,3.5c1.4,0.7,3.5,1,5,1.3c-2.2-3.6-8.2-10.3-8-14.6c0.4,0.3,0.9,0.2,1.5,0.8  c0-2.1-1.7-3.7-1.5-5.9c2.7,0.5,5.1,3.7,8,3.4c-2.4-3.2-5.3-5.9-6.5-10c0.6,0.1,1.4-0.3,1.9-0.2c-0.6-1.1-1.5-2.2-1.9-3.4  c1.6,0.6,3.5,1.9,5.5,1.4c-1.7-3.6-5.8-6.5-8.9-9.8c0.5-5.4,1-11.3,1.4-17.4c1.4,1.7,2.8,3.1,4.4,3.9c1.2-7.3-3.1-15.7,0.1-22.8  c2.1,0.8,3.1,5.4,4.1,7.4c-0.1-3.4-1.5-13.7,1.4-15.5c0.8,1.4,0.2,3,1.3,4.4c0.7-2.3,0.4-5.2,1.2-7.3c1.3,1.6,1.8,3.5,2.7,5.3  c1.3-3.2,1.3-6.7,0.5-10c-0.6-2.6-2.9-5.9-2.4-8.6c0.5,0.4,1.4,0.7,1.9,1.3c-0.6-1.4-2.2-2.8-2.6-4.3c-0.5-1.7,0.4-3.5-0.3-5.1  c2.1,1.5,5.6,3.1,7.3,5.1c-2.3-4.8-4.3-9.6-5.8-14.8c3.2,1.6,6.3,5.8,9.1,8.4c-4.8-4.5-8.7-10.5-10.3-16.6  c3.3-6.4,5.6-12.2,7.3-15.8c3.6-7.6,2.5-27.9,4.1-33.5c1.5-5.6,6.1-18.3,13.2-25.4s11.9-8.1,11.9-8.1s3.9,5.6,5.4,12.2  s3.6,2.5,10.2,6.1c0.9,0.5,1.9,1.1,3.2,1.8c-0.1,2.6-0.1,5.4-0.1,8.4c0,10.7,3.6,24.4,11.2,34.5c7.6,10.1,12.7,7.6,9.7,18.8  c-3,11.2-0.5,33-2.5,42.2c-2,9.1-5.6,13.2-3.6,19.3s2,7.6,3,15.8c1,8.1,2.3,17.8,3.9,20.8c1.6,3,2.7,8.6,2.7,8.6s4.6,3,9.1,5.1  C1481.8,613.7,1483.8,615.7,1482.8,622.3z"/>
</svg>
